<mxfile host="app.diagrams.net" modified="2023-11-09T16:57:03.054Z" agent="Mozilla/5.0 (Macintosh; Intel Mac OS X 10_15_7) AppleWebKit/537.36 (KHTML, like Gecko) Chrome/119.0.0.0 Safari/537.36" etag="y0KC2MNwB2sVw_uvoXCh" version="22.1.0" type="device">
  <diagram id="Zb1RBFaH1Ymdg8LZqQXh" name="diagram">
    <mxGraphModel dx="1195" dy="683" grid="1" gridSize="10" guides="1" tooltips="1" connect="1" arrows="1" fold="1" page="1" pageScale="1" pageWidth="827" pageHeight="1169" math="0" shadow="0">
      <root>
        <mxCell id="0" />
        <mxCell id="1" parent="0" />
        <mxCell id="FWrgvST9mxTP3vGTJhOw-5" value="connectors" style="shape=folder;fontStyle=1;spacingTop=10;tabWidth=50;tabHeight=17;tabPosition=left;html=1;rounded=0;shadow=0;comic=0;labelBackgroundColor=none;strokeWidth=1;fontFamily=Verdana;fontSize=10;align=center;" vertex="1" parent="1">
          <mxGeometry x="670" y="630" width="110" height="70" as="geometry" />
        </mxCell>
        <mxCell id="FWrgvST9mxTP3vGTJhOw-6" value="consumer" style="shape=folder;fontStyle=1;spacingTop=10;tabWidth=50;tabHeight=17;tabPosition=left;html=1;rounded=0;shadow=0;comic=0;labelBackgroundColor=none;strokeWidth=1;fontFamily=Verdana;fontSize=10;align=center;" vertex="1" parent="1">
          <mxGeometry x="280" y="400" width="110" height="70" as="geometry" />
        </mxCell>
        <mxCell id="FWrgvST9mxTP3vGTJhOw-13" style="edgeStyle=orthogonalEdgeStyle;rounded=0;orthogonalLoop=1;jettySize=auto;html=1;" edge="1" parent="1" source="FWrgvST9mxTP3vGTJhOw-7" target="FWrgvST9mxTP3vGTJhOw-11">
          <mxGeometry relative="1" as="geometry" />
        </mxCell>
        <mxCell id="FWrgvST9mxTP3vGTJhOw-7" value="controller" style="shape=folder;fontStyle=1;spacingTop=10;tabWidth=50;tabHeight=17;tabPosition=left;html=1;rounded=0;shadow=0;comic=0;labelBackgroundColor=none;strokeWidth=1;fontFamily=Verdana;fontSize=10;align=center;" vertex="1" parent="1">
          <mxGeometry x="480" y="480" width="110" height="70" as="geometry" />
        </mxCell>
        <mxCell id="FWrgvST9mxTP3vGTJhOw-8" value="notifier" style="shape=folder;fontStyle=1;spacingTop=10;tabWidth=50;tabHeight=17;tabPosition=left;html=1;rounded=0;shadow=0;comic=0;labelBackgroundColor=none;strokeWidth=1;fontFamily=Verdana;fontSize=10;align=center;" vertex="1" parent="1">
          <mxGeometry x="670" y="480" width="110" height="70" as="geometry" />
        </mxCell>
        <mxCell id="FWrgvST9mxTP3vGTJhOw-12" style="edgeStyle=orthogonalEdgeStyle;rounded=0;orthogonalLoop=1;jettySize=auto;html=1;" edge="1" parent="1" source="FWrgvST9mxTP3vGTJhOw-9" target="FWrgvST9mxTP3vGTJhOw-7">
          <mxGeometry relative="1" as="geometry" />
        </mxCell>
        <mxCell id="FWrgvST9mxTP3vGTJhOw-9" value="ginrouter" style="shape=folder;fontStyle=1;spacingTop=10;tabWidth=50;tabHeight=17;tabPosition=left;html=1;rounded=0;shadow=0;comic=0;labelBackgroundColor=none;strokeWidth=1;fontFamily=Verdana;fontSize=10;align=center;" vertex="1" parent="1">
          <mxGeometry x="480" y="330" width="110" height="70" as="geometry" />
        </mxCell>
        <mxCell id="FWrgvST9mxTP3vGTJhOw-10" value="producer" style="shape=folder;fontStyle=1;spacingTop=10;tabWidth=50;tabHeight=17;tabPosition=left;html=1;rounded=0;shadow=0;comic=0;labelBackgroundColor=none;strokeWidth=1;fontFamily=Verdana;fontSize=10;align=center;" vertex="1" parent="1">
          <mxGeometry x="280" y="561" width="110" height="75" as="geometry" />
        </mxCell>
        <mxCell id="FWrgvST9mxTP3vGTJhOw-11" value="repository" style="shape=folder;fontStyle=1;spacingTop=10;tabWidth=50;tabHeight=17;tabPosition=left;html=1;rounded=0;shadow=0;comic=0;labelBackgroundColor=none;strokeWidth=1;fontFamily=Verdana;fontSize=10;align=center;" vertex="1" parent="1">
          <mxGeometry x="480" y="630" width="110" height="70" as="geometry" />
        </mxCell>
        <mxCell id="FWrgvST9mxTP3vGTJhOw-15" style="edgeStyle=orthogonalEdgeStyle;rounded=0;orthogonalLoop=1;jettySize=auto;html=1;entryX=-0.017;entryY=0.504;entryDx=0;entryDy=0;entryPerimeter=0;" edge="1" parent="1" source="FWrgvST9mxTP3vGTJhOw-11" target="FWrgvST9mxTP3vGTJhOw-5">
          <mxGeometry relative="1" as="geometry" />
        </mxCell>
        <mxCell id="FWrgvST9mxTP3vGTJhOw-16" style="edgeStyle=orthogonalEdgeStyle;rounded=0;orthogonalLoop=1;jettySize=auto;html=1;entryX=0;entryY=0.5;entryDx=0;entryDy=0;entryPerimeter=0;startArrow=classic;startFill=1;" edge="1" parent="1" source="FWrgvST9mxTP3vGTJhOw-7" target="FWrgvST9mxTP3vGTJhOw-8">
          <mxGeometry relative="1" as="geometry" />
        </mxCell>
        <mxCell id="FWrgvST9mxTP3vGTJhOw-17" style="rounded=0;orthogonalLoop=1;jettySize=auto;html=1;entryX=0;entryY=0.571;entryDx=0;entryDy=0;entryPerimeter=0;exitX=0;exitY=0;exitDx=110;exitDy=43.5;exitPerimeter=0;" edge="1" parent="1" source="FWrgvST9mxTP3vGTJhOw-6" target="FWrgvST9mxTP3vGTJhOw-7">
          <mxGeometry relative="1" as="geometry" />
        </mxCell>
        <mxCell id="FWrgvST9mxTP3vGTJhOw-19" style="rounded=0;orthogonalLoop=1;jettySize=auto;html=1;entryX=0;entryY=0;entryDx=110;entryDy=46;entryPerimeter=0;exitX=0;exitY=0;exitDx=0;exitDy=43.5;exitPerimeter=0;" edge="1" parent="1" source="FWrgvST9mxTP3vGTJhOw-7" target="FWrgvST9mxTP3vGTJhOw-10">
          <mxGeometry relative="1" as="geometry" />
        </mxCell>
        <mxCell id="sjn8WxqJY8Poh48k-jaA-1" style="rounded=0;orthogonalLoop=1;jettySize=auto;html=1;" edge="1" parent="1">
          <mxGeometry relative="1" as="geometry">
            <mxPoint x="280" y="766" as="sourcePoint" />
            <mxPoint x="320" y="766" as="targetPoint" />
          </mxGeometry>
        </mxCell>
        <mxCell id="sjn8WxqJY8Poh48k-jaA-2" value="Means &quot;use&quot;" style="text;html=1;strokeColor=none;fillColor=none;align=center;verticalAlign=middle;whiteSpace=wrap;rounded=0;fontFamily=Verdana;fontStyle=1;fontSize=12;" vertex="1" parent="1">
          <mxGeometry x="323" y="750" width="90" height="30" as="geometry" />
        </mxCell>
      </root>
    </mxGraphModel>
  </diagram>
</mxfile>
